<svg xmlns="http://www.w3.org/2000/svg" xmlns:xlink="http://www.w3.org/1999/xlink" contentStyleType="text/css" height="649px" preserveAspectRatio="none" style="width:1356px;height:649px;background:#FFFFFF;" version="1.1" viewBox="0 0 1356 649" width="1356px" zoomAndPan="magnify"><defs/><g><!--cluster Web--><g id="cluster_Web"><path d="M195.12,238 L294.0516,238 A3.75,3.75 0 0 1 296.5516,240.5 L303.5516,260.0986 L355.27,260.0986 A2.5,2.5 0 0 1 357.77,262.5986 L357.77,393.5 A2.5,2.5 0 0 1 355.27,396 L195.12,396 A2.5,2.5 0 0 1 192.62,393.5 L192.62,240.5 A2.5,2.5 0 0 1 195.12,238 " fill="#FFFFFF" style="stroke:#374151;stroke-width:1.5;"/><line style="stroke:#374151;stroke-width:1.5;" x1="192.62" x2="303.5516" y1="260.0986" y2="260.0986"/><text fill="#000000" font-family="Arial" font-size="14" font-weight="bold" lengthAdjust="spacing" textLength="97.9316" x="196.62" y="253.1318">&#7912;ng d&#7909;ng web</text></g><!--cluster Backend--><g id="cluster_Backend"><path d="M821.51,264 L933.7649,264 A3.75,3.75 0 0 1 936.2649,266.5 L943.2649,286.0986 L1023.4,286.0986 A2.5,2.5 0 0 1 1025.9,288.5986 L1025.9,538.5 A2.5,2.5 0 0 1 1023.4,541 L821.51,541 A2.5,2.5 0 0 1 819.01,538.5 L819.01,266.5 A2.5,2.5 0 0 1 821.51,264 " fill="#FFFFFF" style="stroke:#374151;stroke-width:1.5;"/><line style="stroke:#374151;stroke-width:1.5;" x1="819.01" x2="943.2649" y1="286.0986" y2="286.0986"/><text fill="#000000" font-family="Arial" font-size="14" font-weight="bold" lengthAdjust="spacing" textLength="111.2549" x="823.01" y="279.1318">D&#7883;ch v&#7909; m&#225;y ch&#7911;</text></g><!--cluster Stores--><g id="cluster_Stores"><path d="M1164.4,259 L1338.0895,259 A3.75,3.75 0 0 1 1340.5895,261.5 L1347.5895,281.0986 L1347.4,281.0986 A2.5,2.5 0 0 1 1349.9,283.5986 L1349.9,639.5 A2.5,2.5 0 0 1 1347.4,642 L1164.4,642 A2.5,2.5 0 0 1 1161.9,639.5 L1161.9,261.5 A2.5,2.5 0 0 1 1164.4,259 " fill="#FFFFFF" style="stroke:#374151;stroke-width:1.5;"/><line style="stroke:#374151;stroke-width:1.5;" x1="1161.9" x2="1347.5895" y1="281.0986" y2="281.0986"/><text fill="#000000" font-family="Arial" font-size="14" font-weight="bold" lengthAdjust="spacing" textLength="172.6895" x="1165.9" y="274.1318">Kho d&#7919; li&#7879;u v&#224; th&#244;ng &#273;i&#7879;p</text></g><!--cluster External--><g id="cluster_External"><path d="M1186.77,6 L1289.646,6 A3.75,3.75 0 0 1 1292.146,8.5 L1299.146,28.0986 L1324.03,28.0986 A2.5,2.5 0 0 1 1326.53,30.5986 L1326.53,232.5 A2.5,2.5 0 0 1 1324.03,235 L1186.77,235 A2.5,2.5 0 0 1 1184.27,232.5 L1184.27,8.5 A2.5,2.5 0 0 1 1186.77,6 " fill="#FFFFFF" style="stroke:#374151;stroke-width:1.5;"/><line style="stroke:#374151;stroke-width:1.5;" x1="1184.27" x2="1299.146" y1="28.0986" y2="28.0986"/><text fill="#000000" font-family="Arial" font-size="14" font-weight="bold" lengthAdjust="spacing" textLength="101.876" x="1188.27" y="21.1318">H&#7879; th&#7889;ng ngo&#224;i</text></g><!--entity CustomerPwa--><g id="elem_CustomerPwa"><rect fill="#FFFFFF" height="36.0986" rx="2.5" ry="2.5" style="stroke:#374151;stroke-width:0.5;" width="93.1377" x="228.63" y="272.95"/><text fill="#000000" font-family="Arial" font-size="14" lengthAdjust="spacing" textLength="73.1377" x="238.63" y="296.0818">PWA kh&#225;ch</text></g><!--entity ManagementApp--><g id="elem_ManagementApp"><rect fill="#FFFFFF" height="36.0986" rx="2.5" ry="2.5" style="stroke:#374151;stroke-width:0.5;" width="133.1484" x="208.62" y="343.95"/><text fill="#000000" font-family="Arial" font-size="14" lengthAdjust="spacing" textLength="113.1484" x="218.62" y="367.0818">&#7912;ng d&#7909;ng qu&#7843;n tr&#7883;</text></g><!--entity AuthGroup--><g id="elem_AuthGroup"><rect fill="#FFFFFF" height="52.1973" rx="2.5" ry="2.5" style="stroke:#374151;stroke-width:0.5;" width="170.9307" x="836.99" y="298.9"/><text fill="#000000" font-family="Arial" font-size="14" lengthAdjust="spacing" textLength="94.958" x="846.99" y="322.0318">Nh&#243;m x&#225;c th&#7921;c</text><text fill="#000000" font-family="Arial" font-size="14" lengthAdjust="spacing" textLength="150.9307" x="846.99" y="338.1305">Authorizer, User-Access</text></g><!--entity OpsGroup--><g id="elem_OpsGroup"><rect fill="#FFFFFF" height="52.1973" rx="2.5" ry="2.5" style="stroke:#374151;stroke-width:0.5;" width="153.8477" x="845.53" y="472.9"/><text fill="#000000" font-family="Arial" font-size="14" lengthAdjust="spacing" textLength="98.8408" x="855.53" y="496.0318">Nh&#243;m v&#7853;n h&#224;nh</text><text fill="#000000" font-family="Arial" font-size="14" lengthAdjust="spacing" textLength="133.8477" x="855.53" y="512.1305">SaaS, Catalog, Order</text></g><!--entity RuntimeGroup--><g id="elem_RuntimeGroup"><rect fill="#FFFFFF" height="52.1973" rx="2.5" ry="2.5" style="stroke:#374151;stroke-width:0.5;" width="174.8887" x="835.01" y="385.9"/><text fill="#000000" font-family="Arial" font-size="14" lengthAdjust="spacing" textLength="154.8887" x="845.01" y="409.0318">Nh&#243;m x&#7917; l&#253; khi v&#7853;n h&#224;nh</text><text fill="#000000" font-family="Arial" font-size="14" lengthAdjust="spacing" textLength="109.7236" x="845.01" y="425.1305">Kitchen, Payment</text></g><!--entity Postgres--><g id="elem_Postgres"><path d="M1187.04,574.4 C1187.04,564.4 1255.4052,564.4 1255.4052,564.4 C1255.4052,564.4 1323.7705,564.4 1323.7705,574.4 L1323.7705,615.5973 C1323.7705,625.5973 1255.4052,625.5973 1255.4052,625.5973 C1255.4052,625.5973 1187.04,625.5973 1187.04,615.5973 L1187.04,574.4 " fill="#F1F1F1" style="stroke:#181818;stroke-width:0.5;"/><path d="M1187.04,574.4 C1187.04,584.4 1255.4052,584.4 1255.4052,584.4 C1255.4052,584.4 1323.7705,584.4 1323.7705,574.4 " fill="none" style="stroke:#181818;stroke-width:0.5;"/><text fill="#000000" font-family="Arial" font-size="14" lengthAdjust="spacing" textLength="76.2617" x="1197.04" y="601.5318">PostgreSQL</text><text fill="#000000" font-family="Arial" font-size="14" lengthAdjust="spacing" textLength="116.7305" x="1197.04" y="617.6305">CSDL theo d&#7883;ch v&#7909;</text></g><!--entity Mongo--><g id="elem_Mongo"><path d="M1205.73,304.4 C1205.73,294.4 1255.4024,294.4 1255.4024,294.4 C1255.4024,294.4 1305.0747,294.4 1305.0747,304.4 L1305.0747,345.5973 C1305.0747,355.5973 1255.4024,355.5973 1255.4024,355.5973 C1255.4024,355.5973 1205.73,355.5973 1205.73,345.5973 L1205.73,304.4 " fill="#F1F1F1" style="stroke:#181818;stroke-width:0.5;"/><path d="M1205.73,304.4 C1205.73,314.4 1255.4024,314.4 1255.4024,314.4 C1255.4024,314.4 1305.0747,314.4 1305.0747,304.4 " fill="none" style="stroke:#181818;stroke-width:0.5;"/><text fill="#000000" font-family="Arial" font-size="14" lengthAdjust="spacing" textLength="62.2549" x="1215.73" y="331.5318">MongoDB</text><text fill="#000000" font-family="Arial" font-size="14" lengthAdjust="spacing" textLength="79.3447" x="1215.73" y="347.6305">User-Access</text></g><!--entity Redis--><g id="elem_Redis"><path d="M1178.86,478.4 C1178.86,468.4 1255.401,468.4 1255.401,468.4 C1255.401,468.4 1331.942,468.4 1331.942,478.4 L1331.942,519.5973 C1331.942,529.5973 1255.401,529.5973 1255.401,529.5973 C1255.401,529.5973 1178.86,529.5973 1178.86,519.5973 L1178.86,478.4 " fill="#F1F1F1" style="stroke:#181818;stroke-width:0.5;"/><path d="M1178.86,478.4 C1178.86,488.4 1255.401,488.4 1255.401,488.4 C1255.401,488.4 1331.942,488.4 1331.942,478.4 " fill="none" style="stroke:#181818;stroke-width:0.5;"/><text fill="#000000" font-family="Arial" font-size="14" lengthAdjust="spacing" textLength="35.793" x="1188.86" y="505.5318">Redis</text><text fill="#000000" font-family="Arial" font-size="14" lengthAdjust="spacing" textLength="133.082" x="1188.86" y="521.6305">cache/tr&#7841;ng th&#225;i ch&#7841;y</text></g><!--entity Kafka--><g id="elem_Kafka"><path d="M1210.31,390.9 L1300.4887,390.9 C1305.4887,390.9 1305.4887,411.9986 1305.4887,411.9986 C1305.4887,411.9986 1305.4887,433.0973 1300.4887,433.0973 L1210.31,433.0973 C1205.31,433.0973 1205.31,411.9986 1205.31,411.9986 C1205.31,411.9986 1205.31,390.9 1210.31,390.9 " fill="#F1F1F1" style="stroke:#181818;stroke-width:0.5;"/><path d="M1300.4887,390.9 C1295.4887,390.9 1295.4887,411.9986 1295.4887,411.9986 C1295.4887,433.0973 1300.4887,433.0973 1300.4887,433.0973 " fill="none" style="stroke:#181818;stroke-width:0.5;"/><text fill="#000000" font-family="Arial" font-size="14" lengthAdjust="spacing" textLength="35.7998" x="1210.31" y="409.0318">Kafka</text><text fill="#000000" font-family="Arial" font-size="14" lengthAdjust="spacing" textLength="80.1787" x="1210.31" y="425.1305">s&#7921; ki&#7879;n mi&#7873;n</text></g><!--entity Keycloak--><g id="elem_Keycloak"><rect fill="#FFFFFF" height="36.0986" rx="2.5" ry="2.5" style="stroke:#374151;stroke-width:0.5;" width="76.8066" x="1217" y="40.95"/><text fill="#000000" font-family="Arial" font-size="14" lengthAdjust="spacing" textLength="56.8066" x="1227" y="64.0818">Keycloak</text></g><!--entity Sepay--><g id="elem_Sepay"><rect fill="#FFFFFF" height="36.0986" rx="2.5" ry="2.5" style="stroke:#374151;stroke-width:0.5;" width="110.2617" x="1200.27" y="111.95"/><text fill="#000000" font-family="Arial" font-size="14" lengthAdjust="spacing" textLength="90.2617" x="1210.27" y="135.0818">SePay/VietQR</text></g><!--entity Cloudinary--><g id="elem_Cloudinary"><rect fill="#FFFFFF" height="36.0986" rx="2.5" ry="2.5" style="stroke:#374151;stroke-width:0.5;" width="86.9238" x="1211.94" y="182.95"/><text fill="#000000" font-family="Arial" font-size="14" lengthAdjust="spacing" textLength="66.9238" x="1221.94" y="206.0818">Cloudinary</text></g><!--entity Customer--><g id="elem_Customer"><ellipse cx="48.8101" cy="219.95" fill="#F1F1F1" rx="16" ry="16" style="stroke:#181818;stroke-width:0.5;"/><path d="M48.8101,239.95 C52.8101,239.95 55.8101,239.95 59.8101,235.95 C67.8101,235.95 75.8101,243.95 75.8101,251.95 L75.8101,255.95 C75.8101,259.95 71.8101,263.95 67.8101,263.95 L29.8101,263.95 C25.8101,263.95 21.8101,259.95 21.8101,255.95 L21.8101,251.95 C21.8101,243.95 29.8101,235.95 37.8101,235.95 C41.8101,239.95 44.8101,239.95 48.8101,239.95 " fill="#F1F1F1" style="stroke:#181818;stroke-width:0.5;"/><text fill="#000000" font-family="Arial" font-size="14" lengthAdjust="spacing" textLength="85.6201" x="6" y="277.5818">Kh&#225;ch t&#7841;i b&#224;n</text></g><!--entity Staff--><g id="elem_Staff"><ellipse cx="48.8053" cy="459.9" fill="#F1F1F1" rx="16" ry="16" style="stroke:#181818;stroke-width:0.5;"/><path d="M48.8053,479.9 C52.8053,479.9 55.8053,479.9 59.8053,475.9 C67.8053,475.9 75.8053,483.9 75.8053,491.9 L75.8053,495.9 C75.8053,499.9 71.8053,503.9 67.8053,503.9 L29.8053,503.9 C25.8053,503.9 21.8053,499.9 21.8053,495.9 L21.8053,491.9 C21.8053,483.9 29.8053,475.9 37.8053,475.9 C41.8053,479.9 44.8053,479.9 48.8053,479.9 " fill="#F1F1F1" style="stroke:#181818;stroke-width:0.5;"/><text fill="#000000" font-family="Arial" font-size="14" lengthAdjust="spacing" textLength="66.9307" x="15.34" y="517.5318">Nh&#226;n vi&#234;n/</text><text fill="#000000" font-family="Arial" font-size="14" lengthAdjust="spacing" textLength="60.7168" x="15.34" y="533.6305">Ch&#7911; qu&#225;n</text></g><!--entity Admin--><g id="elem_Admin"><ellipse cx="48.81" cy="331.9" fill="#F1F1F1" rx="16" ry="16" style="stroke:#181818;stroke-width:0.5;"/><path d="M48.81,351.9 C52.81,351.9 55.81,351.9 59.81,347.9 C67.81,347.9 75.81,355.9 75.81,363.9 L75.81,367.9 C75.81,371.9 71.81,375.9 67.81,375.9 L29.81,375.9 C25.81,375.9 21.81,371.9 21.81,367.9 L21.81,363.9 C21.81,355.9 29.81,347.9 37.81,347.9 C41.81,351.9 44.81,351.9 48.81,351.9 " fill="#F1F1F1" style="stroke:#181818;stroke-width:0.5;"/><text fill="#000000" font-family="Arial" font-size="14" lengthAdjust="spacing" textLength="49.7998" x="21.562" y="389.5318">Qu&#7843;n tr&#7883;</text><text fill="#000000" font-family="Arial" font-size="14" lengthAdjust="spacing" textLength="54.4961" x="21.562" y="405.6305">n&#7873;n t&#7843;ng</text></g><!--entity Bff--><g id="elem_Bff"><rect fill="#FFFFFF" height="52.1973" rx="2.5" ry="2.5" style="stroke:#374151;stroke-width:0.5;" width="189.2441" x="517.77" y="298.9"/><text fill="#000000" font-family="Arial" font-size="14" lengthAdjust="spacing" textLength="26.4414" x="527.77" y="322.0318">BFF</text><text fill="#000000" font-family="Arial" font-size="14" lengthAdjust="spacing" textLength="169.2441" x="527.77" y="338.1305">API Gateway + WebSocket</text></g><!--link Customer to CustomerPwa--><g id="link_Customer_CustomerPwa"><path d="M92.02,251.22 C130.86,259.7 182.4882,270.9697 222.4582,279.6997 " fill="none" id="Customer-to-CustomerPwa" style="stroke:#374151;stroke-width:1;"/><polygon fill="#374151" points="228.32,280.98,220.3808,275.1517,223.4352,279.9131,218.6737,282.9674,228.32,280.98" style="stroke:#374151;stroke-width:1;"/><text fill="#000000" font-family="Arial" font-size="13" lengthAdjust="spacing" textLength="46.9727" x="126.12" y="255.0438">&#273;&#7863;t m&#243;n</text></g><!--link Staff to ManagementApp--><g id="link_Staff_ManagementApp"><path d="M82.44,471.39 C125.1,447.05 194.1781,407.6426 236.6781,383.4026 " fill="none" id="Staff-to-ManagementApp" style="stroke:#374151;stroke-width:1;"/><polygon fill="#374151" points="241.89,380.43,232.0905,381.4143,237.5468,382.9072,236.0539,388.3635,241.89,380.43" style="stroke:#374151;stroke-width:1;"/><text fill="#000000" font-family="Arial" font-size="13" lengthAdjust="spacing" textLength="53.4917" x="122.62" y="415.5338">v&#7853;n h&#224;nh</text></g><!--link Admin to ManagementApp--><g id="link_Admin_ManagementApp"><path d="M76.43,362 C108.7,362 158.23,362 202.25,362 " fill="none" id="Admin-to-ManagementApp" style="stroke:#374151;stroke-width:1;"/><polygon fill="#374151" points="208.25,362,199.25,358,203.25,362,199.25,366,208.25,362" style="stroke:#374151;stroke-width:1;"/><text fill="#000000" font-family="Arial" font-size="13" lengthAdjust="spacing" textLength="43.3608" x="127.62" y="359.1938">qu&#7843;n tr&#7883;</text></g><!--link CustomerPwa to Bff--><g id="link_CustomerPwa_Bff"><path d="M322.1,295.66 C372.21,300.74 447.8506,308.4145 511.6406,314.8845 " fill="none" id="CustomerPwa-to-Bff" style="stroke:#374151;stroke-width:1;"/><polygon fill="#374151" points="517.61,315.49,509.0596,310.6022,512.6355,314.9855,508.2523,318.5614,517.61,315.49" style="stroke:#374151;stroke-width:1;"/><text fill="#000000" font-family="Arial" font-size="13" lengthAdjust="spacing" textLength="112.6963" x="374.77" y="298.2438">HTTPS/WebSocket</text></g><!--link ManagementApp to Bff--><g id="link_ManagementApp_Bff"><path d="M342.02,354.73 C392.07,349.21 455.6361,342.1873 511.5261,336.0273 " fill="none" id="ManagementApp-to-Bff" style="stroke:#374151;stroke-width:1;"/><polygon fill="#374151" points="517.49,335.37,508.106,332.3801,512.5201,335.9178,508.9824,340.3319,517.49,335.37" style="stroke:#374151;stroke-width:1;"/><text fill="#000000" font-family="Arial" font-size="13" lengthAdjust="spacing" textLength="112.6963" x="374.77" y="336.2938">HTTPS/WebSocket</text></g><!--link Bff to AuthGroup--><g id="link_Bff_AuthGroup"><path d="M707.49,325 C748.63,325 790.53,325 830.57,325 " fill="none" id="Bff-to-AuthGroup" style="stroke:#374151;stroke-width:1;"/><polygon fill="#374151" points="836.57,325,827.57,321,831.57,325,827.57,329,836.57,325" style="stroke:#374151;stroke-width:1;"/><text fill="#000000" font-family="Arial" font-size="13" lengthAdjust="spacing" textLength="64.2891" x="738.01" y="322.1938">gRPC/TCP</text></g><!--link Bff to OpsGroup--><g id="link_Bff_OpsGroup"><path d="M648.39,351.56 C686.83,379.9 751.08,424.93 811.01,456 C822.34,461.87 829.1172,465.1227 841.2772,470.1627 " fill="none" id="Bff-to-OpsGroup" style="stroke:#374151;stroke-width:1;"/><polygon fill="#374151" points="846.82,472.46,840.0374,465.3188,842.201,470.5456,836.9743,472.7092,846.82,472.46" style="stroke:#374151;stroke-width:1;"/><text fill="#000000" font-family="Arial" font-size="13" lengthAdjust="spacing" textLength="26" x="757.01" y="410.5138">TCP</text></g><!--link Bff to RuntimeGroup--><g id="link_Bff_RuntimeGroup"><path d="M707.49,351.58 C748.02,363.02 789.3158,374.6794 828.9758,385.8794 " fill="none" id="Bff-to-RuntimeGroup" style="stroke:#374151;stroke-width:1;"/><polygon fill="#374151" points="834.75,387.51,827.1758,381.2146,829.9382,386.1511,825.0017,388.9135,834.75,387.51" style="stroke:#374151;stroke-width:1;"/><text fill="#000000" font-family="Arial" font-size="13" lengthAdjust="spacing" textLength="26" x="757.01" y="357.9038">TCP</text></g><!--link AuthGroup to Keycloak--><g id="link_AuthGroup_Keycloak"><path d="M983.08,298.49 C1001.66,287.67 1020.71,273.52 1033.9,256 C1041.69,245.66 1035.84,239.44 1041.9,228 C1078.24,159.41 1090.05,138.14 1153.9,94 C1172.75,80.97 1191.1205,73.9253 1211.0405,68.5053 " fill="none" id="AuthGroup-to-Keycloak" style="stroke:#374151;stroke-width:1;"/><polygon fill="#374151" points="1216.83,66.93,1207.0955,65.4332,1212.0054,68.2427,1209.1959,73.1526,1216.83,66.93" style="stroke:#374151;stroke-width:1;"/><text fill="#000000" font-family="Arial" font-size="13" lengthAdjust="spacing" textLength="97.5254" x="1045.4" y="98.9038">OIDC/Admin API</text></g><!--link AuthGroup to Mongo--><g id="link_AuthGroup_Mongo"><path d="M1008.25,325 C1070.69,325 1147.41,325 1199.27,325 " fill="none" id="AuthGroup-to-Mongo" style="stroke:#374151;stroke-width:1;"/><polygon fill="#374151" points="1205.27,325,1196.27,321,1200.27,325,1196.27,329,1205.27,325" style="stroke:#374151;stroke-width:1;"/></g><!--link OpsGroup to Postgres--><g id="link_OpsGroup_Postgres"><path d="M963.19,525.49 C985.44,539.09 1014.21,554.72 1041.9,564 C1088.92,579.76 1138.464,586.9741 1180.954,590.7841 " fill="none" id="OpsGroup-to-Postgres" style="stroke:#374151;stroke-width:1;"/><polygon fill="#374151" points="1186.93,591.32,1178.3232,586.5322,1181.95,590.8735,1177.6087,594.5002,1186.93,591.32" style="stroke:#374151;stroke-width:1;"/></g><!--link RuntimeGroup to Postgres--><g id="link_RuntimeGroup_Postgres"><path d="M1007.9,438.49 C1017.15,443.21 1026.04,448.68 1033.9,455 C1038.9,459.02 1037.44,462.4 1041.9,467 C1084.45,510.95 1101.21,515.92 1153.9,547 C1164.31,553.14 1170.2615,556.4606 1181.4215,562.0306 " fill="none" id="RuntimeGroup-to-Postgres" style="stroke:#374151;stroke-width:1;"/><polygon fill="#374151" points="1186.79,564.71,1180.5236,557.1119,1182.3163,562.4771,1176.951,564.2698,1186.79,564.71" style="stroke:#374151;stroke-width:1;"/></g><!--link OpsGroup to Redis--><g id="link_OpsGroup_Redis"><path d="M973.91,525.55 C994.42,534.93 1018.71,544.31 1041.9,549 C1087.2,558.17 1100.75,558.9 1145.9,549 C1155.88,546.81 1168.817,541.4774 1187.637,532.5674 " fill="none" id="OpsGroup-to-Redis" style="stroke:#374151;stroke-width:1;stroke-dasharray:7.0,7.0;"/><polygon fill="#374151" points="1193.06,530,1183.214,530.2358,1188.5409,532.1395,1186.6372,537.4664,1193.06,530" style="stroke:#374151;stroke-width:1;"/></g><!--link RuntimeGroup to Redis--><g id="link_RuntimeGroup_Redis"><path d="M1010.38,434.53 C1051.49,445.22 1101.24,458.21 1145.9,470 C1156.46,472.79 1161.7926,474.194 1172.7426,477.114 " fill="none" id="RuntimeGroup-to-Redis" style="stroke:#374151;stroke-width:1;stroke-dasharray:7.0,7.0;"/><polygon fill="#374151" points="1178.54,478.66,1170.8745,472.4761,1173.7088,477.3717,1168.8132,480.206,1178.54,478.66" style="stroke:#374151;stroke-width:1;"/></g><!--link OpsGroup to Kafka--><g id="link_OpsGroup_Kafka"><path d="M999.8,478.93 C1062.98,462.32 1145.0771,440.7353 1199.3271,426.4753 " fill="none" id="OpsGroup-to-Kafka" style="stroke:#374151;stroke-width:1;"/><polygon fill="#374151" points="1205.13,424.95,1195.4088,423.3694,1200.2943,426.2211,1197.4426,431.1066,1205.13,424.95" style="stroke:#374151;stroke-width:1;"/></g><!--link RuntimeGroup to Kafka--><g id="link_RuntimeGroup_Kafka"><path d="M1009.98,412 C1072.03,412 1147.43,412 1198.84,412 " fill="none" id="RuntimeGroup-to-Kafka" style="stroke:#374151;stroke-width:1;"/><polygon fill="#374151" points="1204.84,412,1195.84,408,1199.84,412,1195.84,416,1204.84,412" style="stroke:#374151;stroke-width:1;"/></g><!--link Kafka to Bff--><g id="link_Kafka_Bff"><path d="M1204.92,404.5 C1185.91,399.01 1165.91,389.49 1153.9,373 C1144.86,360.58 1157.07,245.54 1145.9,235 C1080.86,173.62 822.7737,251.7284 692.5337,296.5284 " fill="none" id="Kafka-to-Bff" style="stroke:#374151;stroke-width:1;"/><polygon fill="#374151" points="686.86,298.48,696.6717,299.335,691.5881,296.8536,694.0695,291.7701,686.86,298.48" style="stroke:#374151;stroke-width:1;"/><text fill="#000000" font-family="Arial" font-size="13" lengthAdjust="spacing" textLength="125.6328" x="859.96" y="211.2138">c&#7847;u n&#7889;i th&#7901;i gian th&#7921;c</text></g><!--link Sepay to Bff--><g id="link_Sepay_Bff"><path d="M1199.87,129.41 C1114.19,130.21 944.07,138.87 811.01,190 C744.69,215.49 683.3397,263.2368 646.8897,294.7368 " fill="none" id="Sepay-to-Bff" style="stroke:#374151;stroke-width:1;"/><polygon fill="#374151" points="642.35,298.66,651.775,295.8017,646.1331,295.3907,646.5441,289.7488,642.35,298.66" style="stroke:#374151;stroke-width:1;"/><text fill="#000000" font-family="Arial" font-size="13" lengthAdjust="spacing" textLength="52.0381" x="896.46" y="137.4338">webhook</text></g><!--link RuntimeGroup to Sepay--><g id="link_RuntimeGroup_Sepay"><path d="M1010.19,388.7 C1019.15,383.41 1027.36,376.94 1033.9,369 C1046.55,353.67 1034.25,343.34 1041.9,325 C1075.33,244.89 1084.67,217.37 1153.9,165 C1167.38,154.8 1178.3758,149.3109 1194.2458,144.0409 " fill="none" id="RuntimeGroup-to-Sepay" style="stroke:#374151;stroke-width:1;"/><polygon fill="#374151" points="1199.94,142.15,1190.138,141.1902,1195.1948,143.7258,1192.6592,148.7825,1199.94,142.15" style="stroke:#374151;stroke-width:1;"/><text fill="#000000" font-family="Arial" font-size="13" lengthAdjust="spacing" textLength="102.6289" x="1042.9" y="168.3638">API nh&#224; cung c&#7845;p</text></g><!--link OpsGroup to Cloudinary--><g id="link_OpsGroup_Cloudinary"><path d="M999.7,480.09 C1012.45,474.11 1024.55,466.27 1033.9,456 C1042.62,446.43 1034.6,438.68 1041.9,428 C1074.66,380.08 1117.23,399.47 1145.9,349 C1161.59,321.39 1138.27,305.64 1153.9,278 C1168.34,252.46 1189.8831,235.66 1212.1431,222.52 " fill="none" id="OpsGroup-to-Cloudinary" style="stroke:#374151;stroke-width:1;"/><polygon fill="#374151" points="1217.31,219.47,1207.5262,220.6004,1213.0042,222.0117,1211.5929,227.4897,1217.31,219.47" style="stroke:#374151;stroke-width:1;"/><text fill="#000000" font-family="Arial" font-size="13" lengthAdjust="spacing" textLength="50.5908" x="1068.9" y="346.1938">&#7843;nh m&#243;n</text></g><!--SRC=[dLHDRzj64BtpLmpSO-m8GL8Ko2609DT9u2IMJQUvwB8YL-H2v2ozkxIi5Zdqr4DE_W41h0H1YW91KQH00GaziN-4_wIpItrm5USI7IHevytRcJTlLay45aon74OicYHAbXZtPIOLV7VaFe7U87JAOZaLcC2OPPgt8Z4Vip8pHnBD2vPpw2h1ibOyadaXaQC9pIpZe7Xa62PPcwAhb9okRhx_muDxtzzh1Lbaf6fosPHhcRSp2ogS9Hn-2G1wEqrCKs6uFPSgvigdVtrRWT_04cHyRC18K2993SJ2jYSa1e4h6_QEqseUfM3gnLp0gBh1FM0Q-gKsr8XQerwarJk4Ir7zWPqXzjDw-H4kochUe4F3nkCrzBIi5-yHZAgNRuQ8zV9NjEplCN7ORfmBkdsjorwz_9rc5jVB3_GpvIC7UiL7hjTjvtk3LrsOk5gz0WTJvkCylejMBIxjEKEwDITajoYiFAtCtj7H4Bk3f_2O6JvbCxXZwmXbDE769VUeoMtXXyH9mbtIJP1Nynb4LfK6I1YEyMuB9EBd7Awe1p24_IkYwqgJIYL-vceVNcgk3hfHnBLkbABOOnfqSHlBPRtuX93IlD8XXeo5-z1dXcKosOSJQmH7SLBehp9SrSjFa5N_agh2fpiM9aevxiE0pQnKZkgiH2Dotj2zRkbmd4ehzv-GYNhvMmcNrGsrL_rDylztRO-AbKUaujf94bEX8wOfTo2rIHGFJv-HgSB3PvJ87TjQMPUwGcalzRd4H1xsXhWhcmjuq3CU2pt4Y55N7VB2OawrKObaU9hPOZvh6hGeohieUMdROkC96wAcES74je6G2sjc1tPHJuOd175ZlIPogg2w4GxvuvNX2bcsQuPZFeiooIODtUgF3mav3Q3pa-3czApHa1TivcFwcInZWKmrJMp_skBMIm871u_Q6mCFQJJruXz3nlsCWLjVX_7MWr0jMmHkSMz5jRTiUwcznw9fQmZpvFny47Os-nJu75_7zLQLRPQ1CCdPeDyvxmysmRNDATO-Rbjs5GgsF1QnrfsY9qyF-vscHte3Td2DfpRNsAEDARrRlCW6V_VkevMzFF3ss6DklFK5RNFilbjwHVNYOmdqobuBvxwt0XB1SFN0186pJ0jFBsmgvUHB-WRuq3OFI1E7g2GZ4_s7mYzlQp52sy6dpaN_0m00]--></g></svg>