<svg xmlns="http://www.w3.org/2000/svg" xmlns:xlink="http://www.w3.org/1999/xlink" contentStyleType="text/css" height="438px" preserveAspectRatio="none" style="width:1464px;height:438px;background:#FFFFFF;" version="1.1" viewBox="0 0 1464 438" width="1464px" zoomAndPan="magnify"><defs/><g><!--cluster BillLane--><g id="cluster_BillLane"><path d="M823.49,251.55 L1008.6502,251.55 A3.75,3.75 0 0 1 1011.1502,254.05 L1018.1502,273.6486 L1455.02,273.6486 A2.5,2.5 0 0 1 1457.52,276.1486 L1457.52,429.05 A2.5,2.5 0 0 1 1455.02,431.55 L823.49,431.55 A2.5,2.5 0 0 1 820.99,429.05 L820.99,254.05 A2.5,2.5 0 0 1 823.49,251.55 " fill="#FFFFFF" style="stroke:#374151;stroke-width:1.5;"/><line style="stroke:#374151;stroke-width:1.5;" x1="820.99" x2="1018.1502" y1="273.6486" y2="273.6486"/><text fill="#000000" font-family="Arial" font-size="14" font-weight="bold" lengthAdjust="spacing" textLength="184.1602" x="824.99" y="266.6818">H&#243;a &#273;&#417;n nh&#224; h&#224;ng - QRTBL</text></g><!--cluster SubscriptionLane--><g id="cluster_SubscriptionLane"><path d="M8.5,199.55 L220.2725,199.55 A3.75,3.75 0 0 1 222.7725,202.05 L229.7725,221.6486 L229.5,221.6486 A2.5,2.5 0 0 1 232,224.1486 L232,332.05 A2.5,2.5 0 0 1 229.5,334.55 L8.5,334.55 A2.5,2.5 0 0 1 6,332.05 L6,202.05 A2.5,2.5 0 0 1 8.5,199.55 " fill="#FFFFFF" style="stroke:#374151;stroke-width:1.5;"/><line style="stroke:#374151;stroke-width:1.5;" x1="6" x2="229.7725" y1="221.6486" y2="221.6486"/><text fill="#000000" font-family="Arial" font-size="14" font-weight="bold" lengthAdjust="spacing" textLength="210.7725" x="10" y="214.6818">G&#243;i thu&#234; bao n&#7873;n t&#7843;ng - QRSUB</text></g><!--entity Order--><g id="elem_Order"><rect fill="#FFFFFF" height="52.1973" rx="2.5" ry="2.5" style="stroke:#374151;stroke-width:0.5;" width="172.4072" x="1269.11" y="286.45"/><text fill="#000000" font-family="Arial" font-size="14" lengthAdjust="spacing" textLength="35.7861" x="1279.11" y="309.5818">Order</text><text fill="#000000" font-family="Arial" font-size="14" lengthAdjust="spacing" textLength="152.4072" x="1279.11" y="325.6805">tr&#7841;ng th&#225;i h&#243;a &#273;&#417;n/phi&#234;n</text></g><!--entity Payment--><g id="elem_Payment"><rect fill="#FFFFFF" height="68.2959" rx="2.5" ry="2.5" style="stroke:#374151;stroke-width:0.5;" width="141.4199" x="836.99" y="305.4"/><text fill="#000000" font-family="Arial" font-size="14" lengthAdjust="spacing" textLength="55.248" x="846.99" y="328.5318">Payment</text><text fill="#000000" font-family="Arial" font-size="14" lengthAdjust="spacing" textLength="121.4199" x="846.99" y="344.6305">giao d&#7883;ch, c&#7845;u h&#236;nh,</text><text fill="#000000" font-family="Arial" font-size="14" lengthAdjust="spacing" textLength="60.6963" x="846.99" y="360.7291">ki&#7875;m to&#225;n</text></g><!--entity Kafka--><g id="elem_Kafka"><path d="M1289.22,373.45 L1421.3987,373.45 C1426.3987,373.45 1426.3987,394.5486 1426.3987,394.5486 C1426.3987,394.5486 1426.3987,415.6473 1421.3987,415.6473 L1289.22,415.6473 C1284.22,415.6473 1284.22,394.5486 1284.22,394.5486 C1284.22,394.5486 1284.22,373.45 1289.22,373.45 " fill="#F1F1F1" style="stroke:#181818;stroke-width:0.5;"/><path d="M1421.3987,373.45 C1416.3987,373.45 1416.3987,394.5486 1416.3987,394.5486 C1416.3987,415.6473 1421.3987,415.6473 1421.3987,415.6473 " fill="none" style="stroke:#181818;stroke-width:0.5;"/><text fill="#000000" font-family="Arial" font-size="14" lengthAdjust="spacing" textLength="35.7998" x="1289.22" y="391.5818">Kafka</text><text fill="#000000" font-family="Arial" font-size="14" lengthAdjust="spacing" textLength="122.1787" x="1289.22" y="407.6805">payment.completed</text></g><!--entity Saas--><g id="elem_Saas"><rect fill="#FFFFFF" height="84.3945" rx="2.5" ry="2.5" style="stroke:#374151;stroke-width:0.5;" width="111.8545" x="62.57" y="234.35"/><text fill="#000000" font-family="Arial" font-size="14" lengthAdjust="spacing" textLength="34.248" x="72.57" y="257.4818">SaaS</text><text fill="#000000" font-family="Arial" font-size="14" lengthAdjust="spacing" textLength="78.4629" x="72.57" y="273.5805">h&#243;a &#273;&#417;n g&#243;i,</text><text fill="#000000" font-family="Arial" font-size="14" lengthAdjust="spacing" textLength="80.958" x="72.57" y="289.6791">g&#243;i thu&#234; bao,</text><text fill="#000000" font-family="Arial" font-size="14" lengthAdjust="spacing" textLength="91.8545" x="72.57" y="305.7777">quy&#7873;n theo g&#243;i</text></g><!--entity Customer--><g id="elem_Customer"><ellipse cx="483.1457" cy="125" fill="#F1F1F1" rx="8" ry="8" style="stroke:#181818;stroke-width:0.5;"/><path d="M483.1457,133 L483.1457,160 M470.1457,141 L496.1457,141 M483.1457,160 L470.1457,175 M483.1457,160 L496.1457,175 " fill="none" style="stroke:#181818;stroke-width:0.5;"/><text fill="#000000" font-family="Arial" font-size="14" lengthAdjust="spacing" textLength="73.1514" x="446.57" y="189.6318">Kh&#225;ch/POS</text></g><!--entity Owner--><g id="elem_Owner"><ellipse cx="483.1384" cy="14" fill="#F1F1F1" rx="8" ry="8" style="stroke:#181818;stroke-width:0.5;"/><path d="M483.1384,22 L483.1384,49 M470.1384,30 L496.1384,30 M483.1384,49 L470.1384,64 M483.1384,49 L496.1384,64 " fill="none" style="stroke:#181818;stroke-width:0.5;"/><text fill="#000000" font-family="Arial" font-size="14" lengthAdjust="spacing" textLength="60.7168" x="452.78" y="78.6318">Ch&#7911; qu&#225;n</text></g><!--entity Bff--><g id="elem_Bff"><rect fill="#FFFFFF" height="52.1973" rx="2.5" ry="2.5" style="stroke:#374151;stroke-width:0.5;" width="220.8262" x="797.28" y="183.45"/><text fill="#000000" font-family="Arial" font-size="14" lengthAdjust="spacing" textLength="26.4414" x="807.28" y="206.5818">BFF</text><text fill="#000000" font-family="Arial" font-size="14" lengthAdjust="spacing" textLength="200.8262" x="807.28" y="222.6805">x&#225;c th&#7921;c v&#224; &#273;&#7883;nh tuy&#7871;n webhook</text></g><!--entity Sepay--><g id="elem_Sepay"><rect fill="#FFFFFF" height="52.1973" rx="2.5" ry="2.5" style="stroke:#374151;stroke-width:0.5;" width="180.2822" x="393" y="313.45"/><text fill="#000000" font-family="Arial" font-size="14" lengthAdjust="spacing" textLength="90.2617" x="403" y="336.5818">SePay/VietQR</text><text fill="#000000" font-family="Arial" font-size="14" lengthAdjust="spacing" textLength="160.2822" x="403" y="352.6805">webhook QRTBL/QRSUB</text></g><!--link Customer to Bff--><g id="link_Customer_Bff"><path d="M520.17,159.24 C580.84,167.14 699.7802,182.6152 791.2402,194.5252 " fill="none" id="Customer-to-Bff" style="stroke:#374151;stroke-width:1;"/><polygon fill="#374151" points="797.19,195.3,788.7819,190.1713,792.2319,194.6543,787.7488,198.1043,797.19,195.3" style="stroke:#374151;stroke-width:1;"/><text fill="#000000" font-family="Arial" font-size="13" lengthAdjust="spacing" textLength="162.4873" x="604.28" y="167.9938">y&#234;u c&#7847;u thanh to&#225;n h&#243;a &#273;&#417;n</text></g><!--link Owner to Bff--><g id="link_Owner_Bff"><path d="M513.77,53.5 C565.61,71.1 675.96,109.37 767.28,146.55 C794.96,157.82 819.7803,168.8399 845.0303,180.4699 " fill="none" id="Owner-to-Bff" style="stroke:#374151;stroke-width:1;"/><polygon fill="#374151" points="850.48,182.98,843.9788,175.5817,845.9386,180.8882,840.632,182.848,850.48,182.98" style="stroke:#374151;stroke-width:1;"/><text fill="#000000" font-family="Arial" font-size="13" lengthAdjust="spacing" textLength="92.5107" x="639.28" y="83.0938">mua/gia h&#7841;n g&#243;i</text></g><!--link Bff to Order--><g id="link_Bff_Order"><path d="M1018.56,234.94 C1095.75,252.79 1191.6741,274.959 1262.8541,291.409 " fill="none" id="Bff-to-Order" style="stroke:#374151;stroke-width:1;"/><polygon fill="#374151" points="1268.7,292.76,1260.8318,286.8362,1263.8284,291.6342,1259.0304,294.6308,1268.7,292.76" style="stroke:#374151;stroke-width:1;"/><text fill="#000000" font-family="Arial" font-size="13" lengthAdjust="spacing" textLength="126.3311" x="1080.61" y="240.0638">l&#7845;y tr&#7841;ng th&#225;i h&#243;a &#273;&#417;n</text></g><!--link Bff to Payment--><g id="link_Bff_Payment"><path d="M907.7,236.03 C907.7,259.02 907.7,276.02 907.7,299.02 " fill="none" id="Bff-to-Payment" style="stroke:#374151;stroke-width:1;"/><polygon fill="#374151" points="907.7,305.02,911.7,296.02,907.7,300.02,903.7,296.02,907.7,305.02" style="stroke:#374151;stroke-width:1;"/></g><!--link Bff to Saas--><g id="link_Bff_Saas"><path d="M796.85,218.9 C626.24,233.42 309.7984,260.351 180.8284,271.331 " fill="none" id="Bff-to-Saas" style="stroke:#374151;stroke-width:1;"/><polygon fill="#374151" points="174.85,271.84,184.1569,275.0621,179.832,271.4159,183.4782,267.091,174.85,271.84" style="stroke:#374151;stroke-width:1;"/><text fill="#000000" font-family="Arial" font-size="13" lengthAdjust="spacing" textLength="117.0571" x="424.64" y="235.7938">t&#7841;o/&#273;&#7889;i so&#225;t QRSUB</text></g><!--link Payment to Sepay--><g id="link_Payment_Sepay"><path d="M836.49,340.75 C814.35,341.08 789.79,341.39 767.28,341.55 C694.4,342.07 676.17,342.16 603.28,341.55 C593.66,341.47 589.6094,341.4338 579.5894,341.2938 " fill="none" id="Payment-to-Sepay" style="stroke:#374151;stroke-width:1;"/><polygon fill="#374151" points="573.59,341.21,582.5332,345.3353,578.5895,341.2799,582.645,337.3361,573.59,341.21" style="stroke:#374151;stroke-width:1;"/><text fill="#000000" font-family="Arial" font-size="13" lengthAdjust="spacing" textLength="110.5381" x="630.28" y="338.7438">t&#7841;o VietQR QRTBL</text></g><!--link Saas to Sepay--><g id="link_Saas_Sepay"><path d="M174.58,286.12 C232.43,296.17 318.4285,311.1133 386.7185,322.9733 " fill="none" id="Saas-to-Sepay" style="stroke:#374151;stroke-width:1;"/><polygon fill="#374151" points="392.63,324,384.4472,318.519,387.7037,323.1445,383.0783,326.401,392.63,324" style="stroke:#374151;stroke-width:1;"/><text fill="#000000" font-family="Arial" font-size="13" lengthAdjust="spacing" textLength="113.4263" x="249" y="297.7438">t&#7841;o VietQR QRSUB</text></g><!--link Sepay to Bff--><g id="link_Sepay_Bff"><path d="M573.49,325.61 C642.63,314.24 732.3,298.07 767.28,285.55 C777.01,282.07 817.9765,259.5044 854.5565,238.9944 " fill="none" id="Sepay-to-Bff" style="stroke:#374151;stroke-width:1;"/><polygon fill="#374151" points="859.79,236.06,849.9835,236.9725,855.4288,238.5053,853.896,243.9505,859.79,236.06" style="stroke:#374151;stroke-width:1;"/><text fill="#000000" font-family="Arial" font-size="13" lengthAdjust="spacing" textLength="52.0381" x="659.28" y="282.7438">webhook</text></g><!--link Payment to Order--><g id="link_Payment_Order"><path d="M978.81,335.3 C1057.37,330.54 1178.721,323.1931 1263.001,318.0831 " fill="none" id="Payment-to-Order" style="stroke:#374151;stroke-width:1;"/><polygon fill="#374151" points="1268.99,317.72,1259.7644,314.272,1263.9992,318.0226,1260.2486,322.2573,1268.99,317.72" style="stroke:#374151;stroke-width:1;"/><text fill="#000000" font-family="Arial" font-size="13" lengthAdjust="spacing" textLength="189.249" x="1049.11" y="316.9838">&#273;&#225;nh d&#7845;u h&#243;a &#273;&#417;n &#273;&#227; thanh to&#225;n</text></g><!--link Payment to Kafka--><g id="link_Payment_Kafka"><path d="M978.81,348.2 C1062.15,358.49 1194.4352,374.8146 1277.9152,385.1246 " fill="none" id="Payment-to-Kafka" style="stroke:#374151;stroke-width:1;"/><polygon fill="#374151" points="1283.87,385.86,1275.4281,380.787,1278.9077,385.2471,1274.4476,388.7267,1283.87,385.86" style="stroke:#374151;stroke-width:1;"/><text fill="#000000" font-family="Arial" font-size="13" lengthAdjust="spacing" textLength="71.5762" x="1108.11" y="354.5338">ph&#225;t s&#7921; ki&#7879;n</text></g><!--SRC=[dLDDRzD04BtxLup2jIMg025nG6eg1QHMzCF0oPUflV6kOk-wwrr2X3WW3XmuzHyqgb2bYWlgBJbmSCN_y3zXTcsd3YeSY5GftNdlpSoRbt8gP84QSpZ5U9fgPMMofpAbuS7OVu9oZIWv9cecP0eJp4hMgoHiWZOpOoNDAymPx6g1MQyUgxnGaaaJcdd6GBFOe4opliIkrchMTdxqzF7EavrUiQ3PC6Nm8G0O_J7dZ0l3tBlI2TER2X_lc-4_L8ACJGmO1Lgat40Yt0P2oI30s11oiC-hHSo7HuVX0B24FLiQbJFTbVTulRg2CrijfAyVpYGLxoOQZCRZIBud3J04_H73k-e2Ri_hrLV9mTXvlVmfOSPEkL9Jhp2QJFhya1tXVFXMC7Dy4iaM2CSdhqS7m-EJyCt8aq9Mu3m8EZS7BwiRf2w_5X8afuRqHyVTRdXD6v5b1oWRvtlz3frBaJIwNYw8OcXzGVHERbXmKLstkphe9fjcpUbB95E12XBQCkPR4DVBRvP4lak-5Scfg5UVS_AyywmbaTAPPPQctyV952Ewhdz_wFGpPbZYqRxeBhTUzaLr8sXGMrrJr1N8UlL9WgcNb-tAQvFiQHbhKRZxthTwY1X6ycvNI4cO1autzEdXZCxcUt2cFAYHHopTN5r4O7lxkRicF8DvTMsT2rUMEEWExvRlsHhutFGOkSKXUGZSdS7t25p10Rpj1Cd8rJdyxL1hUETkzxyRazZapq8DNH3F1PGqZccS2bfyWtMnwi3GXB39KE1b_e5nKatfRgaslHijkcrkpyaHJf5fehA-0RrVzatR8Fii4BdWRlwIVb_WqlL5_WO0]--></g></svg>