<svg xmlns="http://www.w3.org/2000/svg" xmlns:xlink="http://www.w3.org/1999/xlink" contentStyleType="text/css" height="292px" preserveAspectRatio="none" style="width:1211px;height:292px;background:#FFFFFF;" version="1.1" viewBox="0 0 1211 292" width="1211px" zoomAndPan="magnify"><defs/><g><!--cluster Ch? s? h?u nh?m kh?a--><g id="cluster_Ch&#7911; s&#7903; h&#7919;u nh&#243;m kh&#243;a"><path d="M114.21,6 L273.7422,6 A3.75,3.75 0 0 1 276.2422,8.5 L283.2422,28.0986 L935.21,28.0986 A2.5,2.5 0 0 1 937.71,30.5986 L937.71,122.79 A2.5,2.5 0 0 1 935.21,125.29 L114.21,125.29 A2.5,2.5 0 0 1 111.71,122.79 L111.71,8.5 A2.5,2.5 0 0 1 114.21,6 " fill="#FFFFFF" style="stroke:#374151;stroke-width:1.5;"/><line style="stroke:#374151;stroke-width:1.5;" x1="111.71" x2="283.2422" y1="28.0986" y2="28.0986"/><text fill="#000000" font-family="Arial" font-size="14" font-weight="bold" lengthAdjust="spacing" textLength="158.5322" x="115.71" y="21.1318">Ch&#7911; s&#7903; h&#7919;u nh&#243;m kh&#243;a</text></g><!--cluster Ngu?n d? li?u c? th?m quy?n--><g id="cluster_Ngu&#7891;n d&#7919; li&#7879;u c&#243; th&#7849;m quy&#7873;n"><path d="M271.21,173.29 L469.7959,173.29 A3.75,3.75 0 0 1 472.2959,175.79 L479.2959,195.3886 L1202.21,195.3886 A2.5,2.5 0 0 1 1204.71,197.8886 L1204.71,282.99 A2.5,2.5 0 0 1 1202.21,285.49 L271.21,285.49 A2.5,2.5 0 0 1 268.71,282.99 L268.71,175.79 A2.5,2.5 0 0 1 271.21,173.29 " fill="#FFFFFF" style="stroke:#374151;stroke-width:1.5;"/><line style="stroke:#374151;stroke-width:1.5;" x1="268.71" x2="479.2959" y1="195.3886" y2="195.3886"/><text fill="#000000" font-family="Arial" font-size="14" font-weight="bold" lengthAdjust="spacing" textLength="197.5859" x="272.71" y="188.4218">Ngu&#7891;n d&#7919; li&#7879;u c&#243; th&#7849;m quy&#7873;n</text></g><!--entity Bff--><g id="elem_Bff"><rect fill="#FFFFFF" height="68.2959" rx="2.5" ry="2.5" style="stroke:#374151;stroke-width:0.5;" width="134.2969" x="127.56" y="41"/><text fill="#000000" font-family="Arial" font-size="14" lengthAdjust="spacing" textLength="26.4414" x="137.56" y="64.1318">BFF</text><text fill="#000000" font-family="Arial" font-size="14" lengthAdjust="spacing" textLength="114.2969" x="137.56" y="80.2305">token ng&#432;&#7901;i d&#249;ng,</text><text fill="#000000" font-family="Arial" font-size="14" lengthAdjust="spacing" textLength="97.9385" x="137.56" y="96.3291">cache th&#7921;c &#273;&#417;n</text></g><!--entity Order--><g id="elem_Order"><rect fill="#FFFFFF" height="52.1973" rx="2.5" ry="2.5" style="stroke:#374151;stroke-width:0.5;" width="143.7783" x="296.82" y="49.05"/><text fill="#000000" font-family="Arial" font-size="14" lengthAdjust="spacing" textLength="35.7861" x="306.82" y="72.1818">Order</text><text fill="#000000" font-family="Arial" font-size="14" lengthAdjust="spacing" textLength="123.7783" x="306.82" y="88.2805">phi&#234;n, gi&#7887;, h&#7841;n m&#7913;c</text></g><!--entity Kitchen--><g id="elem_Kitchen"><rect fill="#FFFFFF" height="52.1973" rx="2.5" ry="2.5" style="stroke:#374151;stroke-width:0.5;" width="142.0283" x="475.7" y="49.05"/><text fill="#000000" font-family="Arial" font-size="14" lengthAdjust="spacing" textLength="46.6963" x="485.7" y="72.1818">Kitchen</text><text fill="#000000" font-family="Arial" font-size="14" lengthAdjust="spacing" textLength="122.0283" x="485.7" y="88.2805">h&#224;ng &#273;&#7907;i KDS, SLA</text></g><!--entity Payment--><g id="elem_Payment"><rect fill="#FFFFFF" height="52.1973" rx="2.5" ry="2.5" style="stroke:#374151;stroke-width:0.5;" width="121.9512" x="652.73" y="49.05"/><text fill="#000000" font-family="Arial" font-size="14" lengthAdjust="spacing" textLength="55.248" x="662.73" y="72.1818">Payment</text><text fill="#000000" font-family="Arial" font-size="14" lengthAdjust="spacing" textLength="101.9512" x="662.73" y="88.2805">tr&#7841;ng th&#225;i OAuth</text></g><!--entity Saas--><g id="elem_Saas"><rect fill="#FFFFFF" height="68.2959" rx="2.5" ry="2.5" style="stroke:#374151;stroke-width:0.5;" width="111.8545" x="809.78" y="41"/><text fill="#000000" font-family="Arial" font-size="14" lengthAdjust="spacing" textLength="34.248" x="819.78" y="64.1318">SaaS</text><text fill="#000000" font-family="Arial" font-size="14" lengthAdjust="spacing" textLength="80.958" x="819.78" y="80.2305">g&#243;i thu&#234; bao,</text><text fill="#000000" font-family="Arial" font-size="14" lengthAdjust="spacing" textLength="91.8545" x="819.78" y="96.3291">quy&#7873;n theo g&#243;i</text></g><!--entity CatalogDb--><g id="elem_CatalogDb"><path d="M284.83,218.29 C284.83,208.29 361.706,208.29 361.706,208.29 C361.706,208.29 438.582,208.29 438.582,218.29 L438.582,259.4873 C438.582,269.4873 361.706,269.4873 361.706,269.4873 C361.706,269.4873 284.83,269.4873 284.83,259.4873 L284.83,218.29 " fill="#F1F1F1" style="stroke:#181818;stroke-width:0.5;"/><path d="M284.83,218.29 C284.83,228.29 361.706,228.29 361.706,228.29 C361.706,228.29 438.582,228.29 438.582,218.29 " fill="none" style="stroke:#181818;stroke-width:0.5;"/><text fill="#000000" font-family="Arial" font-size="14" lengthAdjust="spacing" textLength="71.5928" x="294.83" y="245.4218">Catalog DB</text><text fill="#000000" font-family="Arial" font-size="14" lengthAdjust="spacing" textLength="133.752" x="294.83" y="261.5205">th&#7921;c &#273;&#417;n/b&#224;n/t&#7891;n kho</text></g><!--entity OrderDb--><g id="elem_OrderDb"><path d="M631.32,218.29 C631.32,208.29 700.714,208.29 700.714,208.29 C700.714,208.29 770.1081,208.29 770.1081,218.29 L770.1081,259.4873 C770.1081,269.4873 700.714,269.4873 700.714,269.4873 C700.714,269.4873 631.32,269.4873 631.32,259.4873 L631.32,218.29 " fill="#F1F1F1" style="stroke:#181818;stroke-width:0.5;"/><path d="M631.32,218.29 C631.32,228.29 700.714,228.29 700.714,228.29 C700.714,228.29 770.1081,228.29 770.1081,218.29 " fill="none" style="stroke:#181818;stroke-width:0.5;"/><text fill="#000000" font-family="Arial" font-size="14" lengthAdjust="spacing" textLength="59.124" x="641.32" y="245.4218">Order DB</text><text fill="#000000" font-family="Arial" font-size="14" lengthAdjust="spacing" textLength="118.7881" x="641.32" y="261.5205">phi&#234;n/&#273;&#417;n/h&#243;a &#273;&#417;n</text></g><!--entity PaymentDb--><g id="elem_PaymentDb"><path d="M805.53,218.29 C805.53,208.29 909.7087,208.29 909.7087,208.29 C909.7087,208.29 1013.8874,208.29 1013.8874,218.29 L1013.8874,259.4873 C1013.8874,269.4873 909.7087,269.4873 909.7087,269.4873 C909.7087,269.4873 805.53,269.4873 805.53,259.4873 L805.53,218.29 " fill="#F1F1F1" style="stroke:#181818;stroke-width:0.5;"/><path d="M805.53,218.29 C805.53,228.29 909.7087,228.29 909.7087,228.29 C909.7087,228.29 1013.8874,228.29 1013.8874,218.29 " fill="none" style="stroke:#181818;stroke-width:0.5;"/><text fill="#000000" font-family="Arial" font-size="14" lengthAdjust="spacing" textLength="78.5859" x="815.53" y="245.4218">Payment DB</text><text fill="#000000" font-family="Arial" font-size="14" lengthAdjust="spacing" textLength="188.3574" x="815.53" y="261.5205">thanh to&#225;n/c&#7845;u h&#236;nh/ki&#7875;m to&#225;n</text></g><!--entity SaasDb--><g id="elem_SaasDb"><path d="M1048.85,218.29 C1048.85,208.29 1118.7055,208.29 1118.7055,208.29 C1118.7055,208.29 1188.5609,208.29 1188.5609,218.29 L1188.5609,259.4873 C1188.5609,269.4873 1118.7055,269.4873 1118.7055,269.4873 C1118.7055,269.4873 1048.85,269.4873 1048.85,259.4873 L1048.85,218.29 " fill="#F1F1F1" style="stroke:#181818;stroke-width:0.5;"/><path d="M1048.85,218.29 C1048.85,228.29 1118.7055,228.29 1118.7055,228.29 C1118.7055,228.29 1188.5609,228.29 1188.5609,218.29 " fill="none" style="stroke:#181818;stroke-width:0.5;"/><text fill="#000000" font-family="Arial" font-size="14" lengthAdjust="spacing" textLength="57.5859" x="1058.85" y="245.4218">SaaS DB</text><text fill="#000000" font-family="Arial" font-size="14" lengthAdjust="spacing" textLength="119.7109" x="1058.85" y="261.5205">&#273;&#417;n v&#7883; thu&#234; bao/g&#243;i</text></g><!--entity UserDb--><g id="elem_UserDb"><path d="M473.37,218.29 C473.37,208.29 534.7113,208.29 534.7113,208.29 C534.7113,208.29 596.0526,208.29 596.0526,218.29 L596.0526,259.4873 C596.0526,269.4873 534.7113,269.4873 534.7113,269.4873 C534.7113,269.4873 473.37,269.4873 473.37,259.4873 L473.37,218.29 " fill="#F1F1F1" style="stroke:#181818;stroke-width:0.5;"/><path d="M473.37,218.29 C473.37,228.29 534.7113,228.29 534.7113,228.29 C534.7113,228.29 596.0526,228.29 596.0526,218.29 " fill="none" style="stroke:#181818;stroke-width:0.5;"/><text fill="#000000" font-family="Arial" font-size="14" lengthAdjust="spacing" textLength="102.6826" x="483.37" y="245.4218">User-Access DB</text><text fill="#000000" font-family="Arial" font-size="14" lengthAdjust="spacing" textLength="77.6563" x="483.37" y="261.5205">h&#7891; s&#417;/vai tr&#242;</text></g><!--entity Redis--><g id="elem_Redis"><path d="M97.25,218.29 C97.25,208.29 173.709,208.29 173.709,208.29 C173.709,208.29 250.168,208.29 250.168,218.29 L250.168,259.4873 C250.168,269.4873 173.709,269.4873 173.709,269.4873 C173.709,269.4873 97.25,269.4873 97.25,259.4873 L97.25,218.29 " fill="#F1F1F1" style="stroke:#181818;stroke-width:0.5;"/><path d="M97.25,218.29 C97.25,228.29 173.709,228.29 173.709,228.29 C173.709,228.29 250.168,228.29 250.168,218.29 " fill="none" style="stroke:#181818;stroke-width:0.5;"/><text fill="#000000" font-family="Arial" font-size="14" lengthAdjust="spacing" textLength="35.793" x="107.25" y="245.4218">Redis</text><text fill="#000000" font-family="Arial" font-size="14" lengthAdjust="spacing" textLength="132.918" x="107.25" y="261.5205">cache, TTL, h&#224;ng &#273;&#7907;i</text></g><!--link Bff to Redis--><g id="link_Bff_Redis"><path d="M127.16,84.66 C91.85,92.92 51.54,109.21 29.71,141.29 C6,176.14 45.6269,199.7777 91.5369,215.8477 " fill="none" id="Bff-to-Redis" style="stroke:#374151;stroke-width:1;stroke-dasharray:7.0,7.0;"/><polygon fill="#374151" points="97.2,217.83,90.0269,211.0812,92.4808,216.1781,87.3838,218.632,97.2,217.83" style="stroke:#374151;stroke-width:1;"/><text fill="#000000" font-family="Arial" font-size="13" lengthAdjust="spacing" textLength="99.0234" x="30.71" y="154.4838">cache &#273;&#7885;c nhanh</text></g><!--link Order to Redis--><g id="link_Order_Redis"><path d="M337.74,101.49 C321.47,113.33 300.61,126.32 279.71,133.29 C268.19,137.14 178.98,132.4 170.71,141.29 C154.49,158.75 155.66,180.7584 161.28,202.0684 " fill="none" id="Order-to-Redis" style="stroke:#374151;stroke-width:1;stroke-dasharray:7.0,7.0;"/><polygon fill="#374151" points="162.81,207.87,164.3827,198.1475,161.535,203.0353,156.6472,200.1876,162.81,207.87" style="stroke:#374151;stroke-width:1;"/><text fill="#000000" font-family="Arial" font-size="13" lengthAdjust="spacing" textLength="52.7681" x="171.71" y="154.4838">phi&#234;n/gi&#7887;</text></g><!--link Kitchen to Redis--><g id="link_Kitchen_Redis"><path d="M514.21,101.53 C498.06,112.94 477.75,125.54 457.71,133.29 C452.74,135.21 273.59,163.17 268.71,165.29 C245.1,175.56 226.6104,188.9761 209.1404,204.1461 " fill="none" id="Kitchen-to-Redis" style="stroke:#374151;stroke-width:1;stroke-dasharray:7.0,7.0;"/><polygon fill="#374151" points="204.61,208.08,214.0282,205.1994,208.3853,204.8017,208.7829,199.1589,204.61,208.08" style="stroke:#374151;stroke-width:1;"/><text fill="#000000" font-family="Arial" font-size="13" lengthAdjust="spacing" textLength="81.5166" x="411.85" y="154.4838">h&#224;ng &#273;&#7907;i KDS</text></g><!--link Payment to Redis--><g id="link_Payment_Redis"><path d="M705.57,101.57 C698,120.59 684.68,145.3 663.71,157.29 C644.66,168.19 289.43,158.05 268.71,165.29 C243.83,173.99 224.6877,187.8918 207.2477,203.7618 " fill="none" id="Payment-to-Redis" style="stroke:#374151;stroke-width:1;stroke-dasharray:7.0,7.0;"/><polygon fill="#374151" points="202.81,207.8,212.1587,204.7012,206.5081,204.4348,206.7744,198.7843,202.81,207.8" style="stroke:#374151;stroke-width:1;"/><text fill="#000000" font-family="Arial" font-size="13" lengthAdjust="spacing" textLength="121.418" x="682.34" y="154.4838">ch&#7889;ng ph&#225;t l&#7841;i OAuth</text></g><!--link Saas to Redis--><g id="link_Saas_Redis"><path d="M852.96,109.76 C844.41,127.25 831.28,147.06 812.71,157.29 C786.23,171.88 297.27,155.4 268.71,165.29 C243.6,173.99 224.2772,188.0904 206.8072,204.0704 " fill="none" id="Saas-to-Redis" style="stroke:#374151;stroke-width:1;stroke-dasharray:7.0,7.0;"/><polygon fill="#374151" points="202.38,208.12,211.7206,204.997,206.0694,204.7453,206.3211,199.094,202.38,208.12" style="stroke:#374151;stroke-width:1;"/><text fill="#000000" font-family="Arial" font-size="13" lengthAdjust="spacing" textLength="109.8652" x="831.94" y="154.4838">cache g&#243;i thu&#234; bao</text></g><!--link Bff to CatalogDb--><g id="link_Bff_CatalogDb"><path d="M235.75,109.52 C249.05,118.7 264.35,127.66 279.71,133.29 C294.83,138.83 340.37,129.87 351.71,141.29 C368.69,158.41 370.4607,180.5743 368.1507,202.0843 " fill="none" id="Bff-to-CatalogDb" style="stroke:#374151;stroke-width:1;"/><polygon fill="#374151" points="367.51,208.05,372.4481,199.5286,368.0439,203.0786,364.4939,198.6743,367.51,208.05" style="stroke:#374151;stroke-width:1;"/></g><!--link Bff to UserDb--><g id="link_Bff_UserDb"><path d="M235.21,109.54 C248.6,118.83 264.09,127.86 279.71,133.29 C323.08,148.38 337.69,132.28 382.71,141.29 C416.2,148 426.25,148.02 455.71,165.29 C475.15,176.69 489.6557,189.2594 503.9857,203.8494 " fill="none" id="Bff-to-UserDb" style="stroke:#374151;stroke-width:1;"/><polygon fill="#374151" points="508.19,208.13,504.7372,198.9062,504.6864,204.5628,499.0298,204.512,508.19,208.13" style="stroke:#374151;stroke-width:1;"/></g><!--link Order to OrderDb--><g id="link_Order_OrderDb"><path d="M398.79,101.65 C423.19,120.71 459.39,145.44 495.71,157.29 C545.68,173.6 564.92,145.72 613.71,165.29 C636.71,174.52 653.8791,188.0358 669.7191,203.6658 " fill="none" id="Order-to-OrderDb" style="stroke:#374151;stroke-width:1;"/><polygon fill="#374151" points="673.99,207.88,670.3932,198.7114,670.431,204.3681,664.7742,204.4059,673.99,207.88" style="stroke:#374151;stroke-width:1;"/></g><!--link Kitchen to OrderDb--><g id="link_Kitchen_OrderDb"><path d="M521.91,101.65 C508.02,119 496.16,141.57 510.71,157.29 C526.3,174.14 592.45,156.64 613.71,165.29 C636.67,174.64 653.8238,188.1612 669.6738,203.7612 " fill="none" id="Kitchen-to-OrderDb" style="stroke:#374151;stroke-width:1;"/><polygon fill="#374151" points="673.95,207.97,670.3415,198.806,670.3865,204.4627,664.7298,204.5076,673.95,207.97" style="stroke:#374151;stroke-width:1;"/><text fill="#000000" font-family="Arial" font-size="13" lengthAdjust="spacing" textLength="147.4561" x="511.71" y="154.4838">&#273;&#7885;c ngu&#7891;n l&#7883;ch s&#7917; khi c&#7847;n</text></g><!--link Payment to PaymentDb--><g id="link_Payment_PaymentDb"><path d="M740.31,101.45 C754.66,113.43 773.36,126.56 792.71,133.29 C812.14,140.05 963.48,126.43 977.71,141.29 C997.14,161.59 980.874,183.9369 957.304,203.9469 " fill="none" id="Payment-to-PaymentDb" style="stroke:#374151;stroke-width:1;"/><polygon fill="#374151" points="952.73,207.83,962.1797,205.0546,956.5417,204.5941,957.0022,198.956,952.73,207.83" style="stroke:#374151;stroke-width:1;"/></g><!--link Saas to SaasDb--><g id="link_Saas_SaasDb"><path d="M921.91,97.54 C948.82,108.87 980.93,124.01 1007.71,141.29 C1037.54,160.55 1063.384,183.2124 1084.714,203.7124 " fill="none" id="Saas-to-SaasDb" style="stroke:#374151;stroke-width:1;"/><polygon fill="#374151" points="1089.04,207.87,1085.3228,198.7496,1085.435,204.4053,1079.7793,204.5175,1089.04,207.87" style="stroke:#374151;stroke-width:1;"/></g><!--SRC=[dLDDRzD04BtxLup2DMrK0KBYK2bfbKkh5f5oosMptjYhsBF1ksvL8Gw80mU4KCKPGOHGrGh4Hq_KHwF-3_yJPjURnevw8WThjJjlvhqtBtecSSuobiA4yLcKgHp37PMe3EuDtI_GjnKwPg4waHZ1b2LQD5v2CMLvOeOApG5B1VGpoPB6ErVfNA50CpAdYO1CSCCmIfej-bccJlpa-uyUR3tSQZpEYHkB1Bm800PhF4zYQOIzLraeidQ7btTn-8ykWL5pC0ecoXX5SgLL81K6GSWCcp0jeFDKX5AFaJCUYouS7Urt8Iu_arb_pwhYY-m0q-1gWc0ffxCJLyKvwAhu17JwaGF6vLKAC_goZkEvOjqP38TZD6ec432w-LaL7oM4vH-Ckdug66hoYzF0cmMwUOFfjDtZqAeRupoMvILs8P9LyPvuLjSBXBGgBhY3kQesS4yQce1ZR6g2lTrH5qRxVOVo9MtS4tQQqe68PtP8H1pBXOJ3VcvYX_85RTI8iT4Oe_9AKdrUNb8u5QbydfzMnIkaEw70lheELApjZcvTFOZoglY049Aba934DpdmyihQStsHWkzI-xlQtmwT4XN1xe38DepiJKXnpxYEirYvaRvsTzBgu6np-DhVNestospin5Mj8Rq9VZR3cC9M4fHNrrzpYj4tZ7ip4l8whH-QpgsrijQvFcuY75V5svM7lPPfQyXdMcGRVSw5rgu1UV01zCsYTyne3Ldvsm5j5G79RmeNR6vkrw66nr1dq2RZ7QSWaugWTgHPv9rnmGjyObe5w_aAbjwqHX6tCogRKvWC99Gi7wd0whg3LJjADVUDZUt68fStNb_Dt5uizxKasxYZzakvFd89sSrZ-u_-Jc6HG0iynri95hhQcgDgh-fT_0C0]--></g></svg>