<svg xmlns="http://www.w3.org/2000/svg" xmlns:xlink="http://www.w3.org/1999/xlink" contentStyleType="text/css" height="923px" preserveAspectRatio="none" style="width:944px;height:923px;background:#FFFFFF;" version="1.1" viewBox="0 0 944 923" width="944px" zoomAndPan="magnify"><defs/><g><!--cluster Platform--><g id="cluster_Platform"><path d="M8.5,6 L219.5,6 A3.75,3.75 0 0 1 222,8.5 L229,28.0986 L365.5,28.0986 A2.5,2.5 0 0 1 368,30.5986 L368,287.89 A2.5,2.5 0 0 1 365.5,290.39 L8.5,290.39 A2.5,2.5 0 0 1 6,287.89 L6,8.5 A2.5,2.5 0 0 1 8.5,6 " fill="#FFFFFF" style="stroke:#374151;stroke-width:1.5;"/><line style="stroke:#374151;stroke-width:1.5;" x1="6" x2="229" y1="28.0986" y2="28.0986"/><text fill="#000000" font-family="Arial" font-size="14" font-weight="bold" lengthAdjust="spacing" textLength="210" x="10" y="21.1318">N&#7873;n t&#7843;ng ph&#225;t tri&#7875;n v&#224; &#273;&#243;ng g&#243;i</text></g><!--cluster Clients--><g id="cluster_Clients"><path d="M410.5,171.19 L561.3848,171.19 A3.75,3.75 0 0 1 563.8848,173.69 L570.8848,193.2886 L734.5,193.2886 A2.5,2.5 0 0 1 737,195.7886 L737,287.89 A2.5,2.5 0 0 1 734.5,290.39 L410.5,290.39 A2.5,2.5 0 0 1 408,287.89 L408,173.69 A2.5,2.5 0 0 1 410.5,171.19 " fill="#FFFFFF" style="stroke:#374151;stroke-width:1.5;"/><line style="stroke:#374151;stroke-width:1.5;" x1="408" x2="570.8848" y1="193.2886" y2="193.2886"/><text fill="#000000" font-family="Arial" font-size="14" font-weight="bold" lengthAdjust="spacing" textLength="149.8848" x="412" y="186.3218">&#7912;ng d&#7909;ng ng&#432;&#7901;i d&#249;ng</text></g><!--cluster Runtime--><g id="cluster_Runtime"><path d="M550.5,354.39 L720.1494,354.39 A3.75,3.75 0 0 1 722.6494,356.89 L729.6494,376.4886 L755.5,376.4886 A2.5,2.5 0 0 1 758,378.9886 L758,599.29 A2.5,2.5 0 0 1 755.5,601.79 L550.5,601.79 A2.5,2.5 0 0 1 548,599.29 L548,356.89 A2.5,2.5 0 0 1 550.5,354.39 " fill="#FFFFFF" style="stroke:#374151;stroke-width:1.5;"/><line style="stroke:#374151;stroke-width:1.5;" x1="548" x2="729.6494" y1="376.4886" y2="376.4886"/><text fill="#000000" font-family="Arial" font-size="14" font-weight="bold" lengthAdjust="spacing" textLength="168.6494" x="552" y="369.5218">L&#7899;p bi&#234;n v&#224; d&#7883;ch v&#7909; mi&#7873;n</text></g><!--cluster Infra--><g id="cluster_Infra"><path d="M162.5,665.79 L332.4092,665.79 A3.75,3.75 0 0 1 334.9092,668.29 L341.9092,687.8886 L502.5,687.8886 A2.5,2.5 0 0 1 505,690.3886 L505,913.68 A2.5,2.5 0 0 1 502.5,916.18 L162.5,916.18 A2.5,2.5 0 0 1 160,913.68 L160,668.29 A2.5,2.5 0 0 1 162.5,665.79 " fill="#FFFFFF" style="stroke:#374151;stroke-width:1.5;"/><line style="stroke:#374151;stroke-width:1.5;" x1="160" x2="341.9092" y1="687.8886" y2="687.8886"/><text fill="#000000" font-family="Arial" font-size="14" font-weight="bold" lengthAdjust="spacing" textLength="168.9092" x="164" y="680.9218">D&#7919; li&#7879;u, cache v&#224; s&#7921; ki&#7879;n</text></g><!--cluster Providers--><g id="cluster_Providers"><path d="M198.5,354.39 L332.5137,354.39 A3.75,3.75 0 0 1 335.0137,356.89 L342.0137,376.4886 L493.5,376.4886 A2.5,2.5 0 0 1 496,378.9886 L496,599.29 A2.5,2.5 0 0 1 493.5,601.79 L198.5,601.79 A2.5,2.5 0 0 1 196,599.29 L196,356.89 A2.5,2.5 0 0 1 198.5,354.39 " fill="#FFFFFF" style="stroke:#374151;stroke-width:1.5;"/><line style="stroke:#374151;stroke-width:1.5;" x1="196" x2="342.0137" y1="376.4886" y2="376.4886"/><text fill="#000000" font-family="Arial" font-size="14" font-weight="bold" lengthAdjust="spacing" textLength="133.0137" x="200" y="369.5218">Nh&#224; cung c&#7845;p ngo&#224;i</text></g><!--entity Nx--><g id="elem_Nx"><rect fill="#FFFFFF" height="36.0986" rx="2.5" ry="2.5" style="stroke:#374151;stroke-width:0.5;" width="104.041" x="220.98" y="57.05"/><text fill="#000000" font-family="Arial" font-size="14" lengthAdjust="spacing" textLength="84.041" x="230.98" y="80.1818">Nx monorepo</text></g><!--entity TypeScript--><g id="elem_TypeScript"><rect fill="#FFFFFF" height="52.1973" rx="2.5" ry="2.5" style="stroke:#374151;stroke-width:0.5;" width="156.8555" x="29.57" y="49"/><text fill="#000000" font-family="Arial" font-size="14" lengthAdjust="spacing" textLength="66.9102" x="39.57" y="72.1318">TypeScript</text><text fill="#000000" font-family="Arial" font-size="14" lengthAdjust="spacing" textLength="136.8555" x="39.57" y="88.2305">h&#7907;p &#273;&#7891;ng d&#249;ng chung</text></g><!--entity Docker--><g id="elem_Docker"><rect fill="#FFFFFF" height="52.1973" rx="2.5" ry="2.5" style="stroke:#374151;stroke-width:0.5;" width="128.1514" x="196.92" y="214.19"/><text fill="#000000" font-family="Arial" font-size="14" lengthAdjust="spacing" textLength="108.1514" x="206.92" y="237.3218">Docker Compose</text><text fill="#000000" font-family="Arial" font-size="14" lengthAdjust="spacing" textLength="108.0352" x="206.92" y="253.4205">m&#244;i tr&#432;&#7901;ng demo</text></g><!--entity Pwa--><g id="elem_Pwa"><rect fill="#FFFFFF" height="52.1973" rx="2.5" ry="2.5" style="stroke:#374151;stroke-width:0.5;" width="93.1377" x="432.43" y="214.19"/><text fill="#000000" font-family="Arial" font-size="14" lengthAdjust="spacing" textLength="73.1377" x="442.43" y="237.3218">PWA kh&#225;ch</text><text fill="#000000" font-family="Arial" font-size="14" lengthAdjust="spacing" textLength="64.5859" x="442.43" y="253.4205">React/Vite</text></g><!--entity Management--><g id="elem_Management"><rect fill="#FFFFFF" height="52.1973" rx="2.5" ry="2.5" style="stroke:#374151;stroke-width:0.5;" width="133.1484" x="560.43" y="214.19"/><text fill="#000000" font-family="Arial" font-size="14" lengthAdjust="spacing" textLength="113.1484" x="570.43" y="237.3218">&#7912;ng d&#7909;ng qu&#7843;n tr&#7883;</text><text fill="#000000" font-family="Arial" font-size="14" lengthAdjust="spacing" textLength="83.248" x="570.43" y="253.4205">Next.js/React</text></g><!--entity Bff--><g id="elem_Bff"><rect fill="#FFFFFF" height="52.1973" rx="2.5" ry="2.5" style="stroke:#374151;stroke-width:0.5;" width="65.124" x="629.44" y="397.39"/><text fill="#000000" font-family="Arial" font-size="14" lengthAdjust="spacing" textLength="26.4414" x="639.44" y="420.5218">BFF</text><text fill="#000000" font-family="Arial" font-size="14" lengthAdjust="spacing" textLength="45.124" x="639.44" y="436.6205">NestJS</text></g><!--entity Services--><g id="elem_Services"><rect fill="#FFFFFF" height="52.1973" rx="2.5" ry="2.5" style="stroke:#374151;stroke-width:0.5;" width="154.5791" x="571.71" y="525.59"/><text fill="#000000" font-family="Arial" font-size="14" lengthAdjust="spacing" textLength="80.917" x="581.71" y="548.7218">D&#7883;ch v&#7909; mi&#7873;n</text><text fill="#000000" font-family="Arial" font-size="14" lengthAdjust="spacing" textLength="134.5791" x="581.71" y="564.8205">NestJS microservices</text></g><!--entity Postgres--><g id="elem_Postgres"><path d="M187.63,718.79 C187.63,708.79 255.9952,708.79 255.9952,708.79 C255.9952,708.79 324.3605,708.79 324.3605,718.79 L324.3605,759.9873 C324.3605,769.9873 255.9952,769.9873 255.9952,769.9873 C255.9952,769.9873 187.63,769.9873 187.63,759.9873 L187.63,718.79 " fill="#F1F1F1" style="stroke:#181818;stroke-width:0.5;"/><path d="M187.63,718.79 C187.63,728.79 255.9952,728.79 255.9952,728.79 C255.9952,728.79 324.3605,728.79 324.3605,718.79 " fill="none" style="stroke:#181818;stroke-width:0.5;"/><text fill="#000000" font-family="Arial" font-size="14" lengthAdjust="spacing" textLength="76.2617" x="197.63" y="745.9218">PostgreSQL</text><text fill="#000000" font-family="Arial" font-size="14" lengthAdjust="spacing" textLength="116.7305" x="197.63" y="762.0205">CSDL theo d&#7883;ch v&#7909;</text></g><!--entity Mongo--><g id="elem_Mongo"><path d="M359.33,718.79 C359.33,708.79 409.0024,708.79 409.0024,708.79 C409.0024,708.79 458.6747,708.79 458.6747,718.79 L458.6747,759.9873 C458.6747,769.9873 409.0024,769.9873 409.0024,769.9873 C409.0024,769.9873 359.33,769.9873 359.33,759.9873 L359.33,718.79 " fill="#F1F1F1" style="stroke:#181818;stroke-width:0.5;"/><path d="M359.33,718.79 C359.33,728.79 409.0024,728.79 409.0024,728.79 C409.0024,728.79 458.6747,728.79 458.6747,718.79 " fill="none" style="stroke:#181818;stroke-width:0.5;"/><text fill="#000000" font-family="Arial" font-size="14" lengthAdjust="spacing" textLength="62.2549" x="369.33" y="745.9218">MongoDB</text><text fill="#000000" font-family="Arial" font-size="14" lengthAdjust="spacing" textLength="79.3447" x="369.33" y="762.0205">User-Access</text></g><!--entity Redis--><g id="elem_Redis"><path d="M184.46,840.98 C184.46,830.98 261.001,830.98 261.001,830.98 C261.001,830.98 337.542,830.98 337.542,840.98 L337.542,882.1773 C337.542,892.1773 261.001,892.1773 261.001,892.1773 C261.001,892.1773 184.46,892.1773 184.46,882.1773 L184.46,840.98 " fill="#F1F1F1" style="stroke:#181818;stroke-width:0.5;"/><path d="M184.46,840.98 C184.46,850.98 261.001,850.98 261.001,850.98 C261.001,850.98 337.542,850.98 337.542,840.98 " fill="none" style="stroke:#181818;stroke-width:0.5;"/><text fill="#000000" font-family="Arial" font-size="14" lengthAdjust="spacing" textLength="35.793" x="194.46" y="868.1118">Redis</text><text fill="#000000" font-family="Arial" font-size="14" lengthAdjust="spacing" textLength="133.082" x="194.46" y="884.2105">cache/tr&#7841;ng th&#225;i ch&#7841;y</text></g><!--entity Kafka--><g id="elem_Kafka"><path d="M377.91,840.48 L468.0887,840.48 C473.0887,840.48 473.0887,861.5786 473.0887,861.5786 C473.0887,861.5786 473.0887,882.6773 468.0887,882.6773 L377.91,882.6773 C372.91,882.6773 372.91,861.5786 372.91,861.5786 C372.91,861.5786 372.91,840.48 377.91,840.48 " fill="#F1F1F1" style="stroke:#181818;stroke-width:0.5;"/><path d="M468.0887,840.48 C463.0887,840.48 463.0887,861.5786 463.0887,861.5786 C463.0887,882.6773 468.0887,882.6773 468.0887,882.6773 " fill="none" style="stroke:#181818;stroke-width:0.5;"/><text fill="#000000" font-family="Arial" font-size="14" lengthAdjust="spacing" textLength="35.7998" x="377.91" y="858.6118">Kafka</text><text fill="#000000" font-family="Arial" font-size="14" lengthAdjust="spacing" textLength="80.1787" x="377.91" y="874.7105">s&#7921; ki&#7879;n mi&#7873;n</text></g><!--entity Keycloak--><g id="elem_Keycloak"><rect fill="#FFFFFF" height="52.1973" rx="2.5" ry="2.5" style="stroke:#374151;stroke-width:0.5;" width="87.6553" x="220.17" y="397.39"/><text fill="#000000" font-family="Arial" font-size="14" lengthAdjust="spacing" textLength="56.8066" x="230.17" y="420.5218">Keycloak</text><text fill="#000000" font-family="Arial" font-size="14" lengthAdjust="spacing" textLength="67.6553" x="230.17" y="436.6205">OIDC/JWT</text></g><!--entity Sepay--><g id="elem_Sepay"><rect fill="#FFFFFF" height="52.1973" rx="2.5" ry="2.5" style="stroke:#374151;stroke-width:0.5;" width="110.2617" x="342.87" y="397.39"/><text fill="#000000" font-family="Arial" font-size="14" lengthAdjust="spacing" textLength="90.2617" x="352.87" y="420.5218">SePay/VietQR</text><text fill="#000000" font-family="Arial" font-size="14" lengthAdjust="spacing" textLength="66.1719" x="352.87" y="436.6205">thanh to&#225;n</text></g><!--entity Cloudinary--><g id="elem_Cloudinary"><rect fill="#FFFFFF" height="52.1973" rx="2.5" ry="2.5" style="stroke:#374151;stroke-width:0.5;" width="103.9385" x="220.03" y="525.59"/><text fill="#000000" font-family="Arial" font-size="14" lengthAdjust="spacing" textLength="66.9238" x="230.03" y="548.7218">Cloudinary</text><text fill="#000000" font-family="Arial" font-size="14" lengthAdjust="spacing" textLength="83.9385" x="230.03" y="564.8205">&#7843;nh th&#7921;c &#273;&#417;n</text></g><!--link Platform to Clients--><g id="link_Platform_Clients"><path d="M368.316,78.1434 C368.6327,78.221 368.9579,78.3006 369.2915,78.3823 C374.6295,79.6895 382.1218,81.5187 391.3892,83.7667 C409.9241,88.2628 435.5594,94.4344 465.2613,101.4562 C524.665,115.5 600.335,132.945 668,147.19 C686.59,151.11 696.34,141.99 710,155.19 C713.3363,158.415 716.1431,162.0922 718.4999,166.0648 C719.0891,167.0579 719.6502,168.0695 720.1843,169.0971 C720.4514,169.6109 720.7118,170.1288 720.9656,170.6503 C721.029,170.7806 718.5014,187.598 718.564,187.7288 " fill="none" id="Platform-to-Clients" style="stroke:#374151;stroke-width:1;stroke-dasharray:7.0,7.0;"/><polygon fill="#374151" points="721.1547,193.1407,720.8766,183.2958,718.9958,188.6308,713.6608,186.75,721.1547,193.1407" style="stroke:#374151;stroke-width:1;"/><text fill="#000000" font-family="Arial" font-size="13" lengthAdjust="spacing" textLength="103.3525" x="669" y="144.3838">qu&#7843;n l&#253; m&#227; ngu&#7891;n</text></g><!--link Platform to Runtime--><g id="link_Platform_Runtime"><path d="M368.6917,76.5694 C368.9359,76.5831 369.1849,76.597 369.4386,76.6112 C369.946,76.6397 370.4726,76.6693 371.0178,76.7002 C373.1987,76.8234 375.679,76.9654 378.4365,77.1259 C389.4668,77.7681 404.9337,78.7075 423.4223,79.935 C460.3997,82.39 509.4644,85.9975 559.2987,90.685 C658.9675,100.06 761.715,113.755 777,131.19 C819.185,179.315 813.3025,250.635 796.45,310.6587 C788.0238,340.6706 776.855,367.8584 767.5809,387.9108 C765.2624,392.9239 763.0623,397.491 761.0531,401.5448 C760.0485,403.5717 761.8214,400.1272 760.9213,401.889 " fill="none" id="Platform-to-Runtime" style="stroke:#374151;stroke-width:1;stroke-dasharray:7.0,7.0;"/><polygon fill="#374151" points="758.1915,407.232,765.8482,401.0373,760.4663,402.7795,758.7241,397.3976,758.1915,407.232" style="stroke:#374151;stroke-width:1;"/><text fill="#000000" font-family="Arial" font-size="13" lengthAdjust="spacing" textLength="126.3501" x="810.16" y="245.4838">h&#7907;p &#273;&#7891;ng v&#224; &#273;&#243;ng g&#243;i</text></g><!--link Clients to Bff--><g id="link_Clients_Bff"><path d="M721.1659,290.5608 C721.1181,290.6653 721.0701,290.7697 721.0218,290.874 C720.6355,291.708 720.2313,292.5329 719.8084,293.3468 C718.9625,294.9746 718.0418,296.5583 717.0397,298.0825 C715.0356,301.1309 712.7063,303.9412 710,306.39 C695.58,319.43 679.77,299.73 667,314.39 C647.5,336.78 648.9802,366.8291 653.8802,391.0491 " fill="none" id="Clients-to-Bff" style="stroke:#374151;stroke-width:1;"/><polygon fill="#374151" points="655.07,396.93,657.2059,387.3155,654.0785,392.0293,649.3648,388.9019,655.07,396.93" style="stroke:#374151;stroke-width:1;"/><text fill="#000000" font-family="Arial" font-size="13" lengthAdjust="spacing" textLength="104.7554" x="668" y="327.5838">REST/WebSocket</text></g><!--link Bff to Services--><g id="link_Bff_Services"><path d="M659.37,450.03 C657.11,471.92 654.4935,497.3314 652.2435,519.2214 " fill="none" id="Bff-to-Services" style="stroke:#374151;stroke-width:1;"/><polygon fill="#374151" points="651.63,525.19,656.5293,516.6462,652.1412,520.2162,648.5712,515.8282,651.63,525.19" style="stroke:#374151;stroke-width:1;"/><text fill="#000000" font-family="Arial" font-size="13" lengthAdjust="spacing" textLength="64.2891" x="657.28" y="492.7838">TCP/gRPC</text></g><!--link Services to Infra--><g id="link_Services_Infra"><path d="M628.18,578.12 C607.695,603.15 575.5975,642.365 548.2813,675.7375 C534.6231,692.4238 522.1603,707.6494 512.942,718.9109 C510.6375,721.7263 508.5357,724.294 506.6687,726.5747 C506.2019,727.1449 509.5504,723.0544 509.1135,723.5881 " fill="none" id="Services-to-Infra" style="stroke:#374151;stroke-width:1;"/><polygon fill="#374151" points="505.313,728.2309,514.109,723.8004,508.4801,724.3619,507.9186,718.733,505.313,728.2309" style="stroke:#374151;stroke-width:1;"/><text fill="#000000" font-family="Arial" font-size="13" lengthAdjust="spacing" textLength="103.397" x="587.61" y="638.9838">d&#7919; li&#7879;u v&#224; s&#7921; ki&#7879;n</text></g><!--link Providers to Bff--><g id="link_Providers_Bff"><path d="M496.036,423.49 C496.2458,423.49 496.4592,423.49 496.6763,423.49 C497.1104,423.49 497.559,423.49 498.0216,423.49 C498.9468,423.49 499.9282,423.49 500.9625,423.49 C503.0309,423.49 505.3105,423.49 507.7742,423.49 C517.6291,423.49 530.4294,423.49 544.4413,423.49 C572.465,423.49 599.335,423.49 623.18,423.49 " fill="none" id="Providers-to-Bff" style="stroke:#374151;stroke-width:1;"/><polygon fill="#374151" points="629.18,423.49,620.18,419.49,624.18,423.49,620.18,427.49,629.18,423.49" style="stroke:#374151;stroke-width:1;"/><text fill="#000000" font-family="Arial" font-size="13" lengthAdjust="spacing" textLength="105.5361" x="506.4" y="417.6838">x&#225;c th&#7921;c/webhook</text></g><!--link Services to Providers--><g id="link_Services_Providers"><path d="M612.67,525.12 C599.98,515.99 585.73,505.51 573,495.59 C554.18,480.925 533.65,463.785 517.4813,450.0087 C509.3969,443.1206 502.4028,437.0734 497.258,432.597 C496.9364,432.3173 496.6221,432.0436 496.3152,431.7763 C496.2384,431.7095 500.6861,435.5844 500.6103,435.5183 " fill="none" id="Services-to-Providers" style="stroke:#374151;stroke-width:1;"/><polygon fill="#374151" points="496.0864,431.577,500.2447,440.5049,499.8563,434.8614,505.4998,434.473,496.0864,431.577" style="stroke:#374151;stroke-width:1;"/><text fill="#000000" font-family="Arial" font-size="13" lengthAdjust="spacing" textLength="72.1157" x="574" y="492.7838">API t&#237;ch h&#7907;p</text></g><!--SRC=[dLJBRjD05DtxAqPbInjLW92og9GuHEehf76W6sycuuazn9vnn-Ea4MA1MB3e2h54IAsgIWW9GLKsr69brF_mdt1dd9TJLcIHo7FFFNFkyRb9Hep7ME883J0P-LAatBD5A2Hwq3OVAraWaW1xOiAuZuOuJEXAnQD3d8QgBRZgu8YYXcGuNAaJ4SM2KwuSDGqfafGepFrmbQ8XfPZCRdxqzF7sa-sLOWpQi4_HQmkXvfhEIS0KrUT2UbHM6TxyIyD_i5XAn4W9D11A2HYNwGcOu9OrLxRHARAt7AdYzXByYOFyGY4bMP6zusYSdwC_7_8RAFZv3Tj0E47T4AkXa94HivIsqJb5aU12qbWONEUqMkzFO-eGoMBbyg38BcDWBhAFGEtbl-2R12dtJUSIMMLe2JAY4jdw9A4kZ_AV3AJU_IYopvg6HkND9KuFlvYnoBveH95TmG_tJGihBpOjTiZWYcHzfkvn0ut04HAul4SnKRMNO7PfmmHNiPKhJb9j9uWhiZENT-YfsdgLr0o5wJx477H5q5YHUL1ads8qOFdNqdjWEoC16WCfYfX-JwQxbtB58hgkjjbkwxiIjUSOM7CuN3Fm7jqS3uz4Wgbop0XDJBSpUwW818RlA8JMz-b3H309gD6P5Dar6kdZKk0k7qfiv7bOuG5EeBKh4kLBwXmTkDnsMWT81LIiJbZQMgAIIkkXuBveDLt-0XHkDWYeAZMQGWNQenvBN6warS3-smju6mfU8OE0mTEqD52ZeEyafIaqxUFX2BjyPOfLjqsrua8dW9b9gaDRt5x542YHdy-sGuenWpsy5wLzEYMXm2ENFzzjsRMzutv9FZkkWXtQnLF86bL7FPUh0FC0bZY_uBCt4-DfjS4EHUenZkNKvJfv08STkoQmOtUphYL4pxBOugsjdKNww_FSXlbl5EMNC5YgLxIAdgUlZgfhlFPdOSrPDpTtT1G1ttlcz6l7TE3e1LMMFjJ5UT80qRUxDR_NjQt5cGQKSQhhiCpJjnuxQsdyyhvJsDoP4RK97GH2ZAh4owOwQdHtaSg_GHZDM7y1]--></g></svg>